<svg width="54" height="49" viewBox="0 0 54 49" fill="none" xmlns="http://www.w3.org/2000/svg">
<path d="M46.7502 29.25V36.5H54.0002V41.3333H46.7502V48.5833H41.9168V41.3333H34.6668V36.5H41.9168V29.25H46.7502ZM46.7695 0.25C48.0938 0.25 49.1668 1.32542 49.1668 2.64975V25.2432C47.6143 24.6953 45.9798 24.4158 44.3335 24.4167V5.08333H5.66683L5.66925 38.9167L28.1249 16.4586C28.5407 16.0421 29.0942 15.7917 29.6816 15.7544C30.2689 15.717 30.8496 15.8952 31.3149 16.2556L31.5421 16.461L40.1092 25.0402C38.2354 25.6111 36.4966 26.5557 34.9978 27.8168C33.4989 29.078 32.271 30.6296 31.388 32.3781C30.505 34.1267 29.9853 36.0359 29.8602 37.9908C29.7351 39.9456 30.0071 41.9056 30.66 43.7524L3.23083 43.75C2.59479 43.7494 1.98503 43.4962 1.53551 43.0463C1.08599 42.5963 0.833496 41.9863 0.833496 41.3503V2.64975C0.837919 2.01508 1.09184 1.40763 1.5404 0.958609C1.98897 0.509593 2.59616 0.255062 3.23083 0.25H46.7695ZM15.3335 9.91667C16.6154 9.91667 17.8447 10.4259 18.7512 11.3323C19.6576 12.2387 20.1668 13.4681 20.1668 14.75C20.1668 16.0319 19.6576 17.2613 18.7512 18.1677C17.8447 19.0741 16.6154 19.5833 15.3335 19.5833C14.0516 19.5833 12.8222 19.0741 11.9158 18.1677C11.0094 17.2613 10.5002 16.0319 10.5002 14.75C10.5002 13.4681 11.0094 12.2387 11.9158 11.3323C12.8222 10.4259 14.0516 9.91667 15.3335 9.91667Z" fill="black"/>
</svg>
