<svg width="16" height="14" viewBox="0 0 16 14" fill="none" xmlns="http://www.w3.org/2000/svg">
<path d="M8.70714 0.500062C8.51962 0.312591 8.26531 0.207275 8.00014 0.207275C7.73498 0.207275 7.48067 0.312591 7.29314 0.500062L0.646143 7.14606C0.599655 7.19255 0.562779 7.24774 0.53762 7.30848C0.512461 7.36922 0.499512 7.43432 0.499512 7.50006C0.499512 7.56581 0.512461 7.63091 0.53762 7.69165C0.562779 7.75239 0.599655 7.80757 0.646143 7.85406C0.74003 7.94795 0.867368 8.00069 1.00014 8.00069C1.06589 8.00069 1.13099 7.98774 1.19173 7.96259C1.25247 7.93743 1.30766 7.90055 1.35414 7.85406L8.00014 1.20706L14.6461 7.85406C14.74 7.94795 14.8674 8.00069 15.0001 8.00069C15.1329 8.00069 15.2603 7.94795 15.3541 7.85406C15.448 7.76018 15.5008 7.63284 15.5008 7.50006C15.5008 7.36729 15.448 7.23995 15.3541 7.14606L13.0001 4.79306V1.50006C13.0001 1.36745 12.9475 1.24028 12.8537 1.14651C12.7599 1.05274 12.6328 1.00006 12.5001 1.00006H11.5001C11.3675 1.00006 11.2404 1.05274 11.1466 1.14651C11.0528 1.24028 11.0001 1.36745 11.0001 1.50006V2.79306L8.70714 0.500062Z" fill="#1E40AF"/>
<path d="M8 2.29297L14 8.29297V12.5C14 12.8978 13.842 13.2793 13.5607 13.5606C13.2794 13.8419 12.8978 14 12.5 14H3.5C3.10218 14 2.72064 13.8419 2.43934 13.5606C2.15804 13.2793 2 12.8978 2 12.5V8.29297L8 2.29297Z" fill="#1E40AF"/>
</svg>
