<svg width="14" height="16" viewBox="0 0 14 16" fill="none" xmlns="http://www.w3.org/2000/svg">
<path d="M6 2H4C3.54037 2 3.08525 2.09053 2.66061 2.26642C2.23597 2.44231 1.85013 2.70012 1.52513 3.02513C1.20012 3.35013 0.942313 3.73597 0.766422 4.16061C0.59053 4.58525 0.5 5.04037 0.5 5.5C0.5 5.95963 0.59053 6.41475 0.766422 6.83939C0.942313 7.26403 1.20012 7.64987 1.52513 7.97487C1.85013 8.29988 2.23597 8.55769 2.66061 8.73358C3.08525 8.90947 3.54037 9 4 9H6V12H1.5V14H6V16H8V14H10C10.9283 14 11.8185 13.6313 12.4749 12.9749C13.1313 12.3185 13.5 11.4283 13.5 10.5C13.5 9.57174 13.1313 8.6815 12.4749 8.02513C11.8185 7.36875 10.9283 7 10 7H8V4H12.5V2H8V0H6V2ZM8 9H10C10.3978 9 10.7794 9.15804 11.0607 9.43934C11.342 9.72064 11.5 10.1022 11.5 10.5C11.5 10.8978 11.342 11.2794 11.0607 11.5607C10.7794 11.842 10.3978 12 10 12H8V9ZM6 7H4C3.80302 7 3.60796 6.9612 3.42597 6.88582C3.24399 6.81044 3.07863 6.69995 2.93934 6.56066C2.80005 6.42137 2.68956 6.25601 2.61418 6.07403C2.5388 5.89204 2.5 5.69698 2.5 5.5C2.5 5.30302 2.5388 5.10796 2.61418 4.92597C2.68956 4.74399 2.80005 4.57863 2.93934 4.43934C3.07863 4.30005 3.24399 4.18956 3.42597 4.11418C3.60796 4.0388 3.80302 4 4 4H6V7Z" fill="#1E40AF"/>
</svg>
